<?xml version="1.0" encoding="utf-8"?>
<!-- Generator: Adobe Illustrator 18.0.0, SVG Export Plug-In . SVG Version: 6.00 Build 0)  -->
<!DOCTYPE svg PUBLIC "-//W3C//DTD SVG 1.1//EN" "http://www.w3.org/Graphics/SVG/1.1/DTD/svg11.dtd">
<svg version="1.1" id="Icon_Set" xmlns="http://www.w3.org/2000/svg" xmlns:xlink="http://www.w3.org/1999/xlink" x="0px" y="0px"
	 viewBox="0 0 256 256" style="enable-background:new 0 0 256 256;" xml:space="preserve">
<style type="text/css">
	.st0{fill:#484771;}
	.st1{fill:#F1C48B;}
	.st2{fill:#D5E6F7;}
	.st3{fill:#A0D1F2;}
	.st4{fill:#FD919F;}
	.st5{fill:#E0667D;}
	.st6{fill:#504774;}
	.st7{fill:#7BACF1;}
	.st8{fill:#FFFFFF;}
	.st9{fill:#D4E7F8;}
	.st10{fill:#A3D0F1;}
	.st11{fill:#4C4372;}
	.st12{fill:#7BABF3;}
	.st13{fill:#FD919E;}
	.st14{fill:#D3E6F8;}
	.st15{fill:#E8677D;}
	.st16{fill:#A4CFF2;}
</style>
<g>
	<g>
		<circle class="st1" cx="128" cy="128" r="103.873"/>
	</g>
	<g>
		<path class="st2" d="M185.855,192.074H70.145v-17.671c0-5.701,4.621-10.322,10.323-10.322h95.066
			c5.701,0,10.322,4.622,10.322,10.322V192.074z"/>
	</g>
	<g>
		<path class="st3" d="M175.533,164.08h-25.775c5.701,0,10.322,4.622,10.322,10.322v17.671h25.775v-17.671
			C185.855,168.702,181.234,164.08,175.533,164.08z"/>
	</g>
	<g>
		<path class="st4" d="M167.497,164.08H88.503v-39.497c0-21.814,17.684-39.497,39.497-39.497l0,0
			c21.814,0,39.497,17.683,39.497,39.497V164.08z"/>
	</g>
	<g>
		<path class="st5" d="M128,85.086L128,85.086c-2.834,0-5.596,0.305-8.261,0.872c17.847,3.799,31.236,19.646,31.236,38.625v39.497
			h16.523v-39.497C167.497,102.769,149.814,85.086,128,85.086z"/>
	</g>
	<g>
		<path class="st6" d="M167.497,167.081H88.503c-1.657,0-3-1.343-3-3v-39.498c0-23.433,19.064-42.498,42.497-42.498
			s42.497,19.064,42.497,42.498v39.498C170.497,165.737,169.154,167.081,167.497,167.081z M91.503,161.081h72.994v-36.498
			c0-20.125-16.372-36.498-36.497-36.498s-36.497,16.373-36.497,36.498V161.081z"/>
	</g>
	<g>
		<path class="st6" d="M185.855,195.074H70.145c-1.657,0-3-1.343-3-3v-17.671c0-7.346,5.977-13.322,13.322-13.322h95.066
			c7.346,0,13.322,5.977,13.322,13.322v17.671C188.855,193.73,187.513,195.074,185.855,195.074z M73.145,189.074h109.711v-14.671
			c0-4.038-3.285-7.322-7.322-7.322H80.467c-4.037,0-7.322,3.285-7.322,7.322V189.074z"/>
	</g>
	<g>
		<path class="st6" d="M61.915,157.645c-0.768,0-1.535-0.293-2.121-0.879c-24.527-24.526-24.527-64.435,0-88.961
			c1.172-1.172,3.07-1.172,4.242,0c1.172,1.171,1.172,3.071,0,4.242c-22.188,22.188-22.188,58.289,0,80.477
			c1.172,1.171,1.172,3.071,0,4.242C63.45,157.352,62.683,157.645,61.915,157.645z"/>
	</g>
	<g>
		<path class="st6" d="M77.521,142.039c-0.768,0-1.535-0.293-2.121-0.879c-15.922-15.921-15.922-41.828,0-57.75
			c1.172-1.172,3.07-1.171,4.242,0c1.172,1.172,1.172,3.071,0,4.243c-13.582,13.583-13.582,35.683,0,49.265
			c1.172,1.171,1.172,3.071,0,4.242C79.056,141.746,78.288,142.039,77.521,142.039z"/>
	</g>
	<g>
		<path class="st6" d="M194.085,157.645c-0.768,0-1.535-0.293-2.121-0.879c-1.172-1.171-1.172-3.071,0-4.242
			c22.188-22.188,22.188-58.289,0-80.477c-1.172-1.171-1.172-3.071,0-4.242c1.172-1.172,3.07-1.172,4.242,0
			c24.527,24.526,24.527,64.435,0,88.961C195.62,157.352,194.853,157.645,194.085,157.645z"/>
	</g>
	<g>
		<path class="st6" d="M178.479,142.039c-0.768,0-1.535-0.293-2.121-0.879c-1.172-1.171-1.172-3.071,0-4.242
			c13.582-13.583,13.582-35.683,0-49.265c-1.172-1.171-1.172-3.071,0-4.243c1.172-1.171,3.07-1.171,4.242,0
			c15.922,15.922,15.922,41.828,0,57.75C180.015,141.746,179.247,142.039,178.479,142.039z"/>
	</g>
</g>
</svg>
