<?xml version="1.0" encoding="iso-8859-1"?>
<!-- Generator: Adobe Illustrator 19.0.0, SVG Export Plug-In . SVG Version: 6.00 Build 0)  -->
<svg xmlns="http://www.w3.org/2000/svg" xmlns:xlink="http://www.w3.org/1999/xlink" version="1.1" id="Layer_1" x="0px" y="0px" viewBox="0 0 512 512" style="enable-background:new 0 0 512 512;" xml:space="preserve">
<path style="fill:#35AF5A;" d="M503.986,138.413c-14.724-33.932-37.41-64.626-65.603-88.766c-1.965-1.684-4.951-1.373-6.525,0.695  l-72.05,94.719c-1.39,1.826-1.186,4.407,0.474,5.993c8.977,8.578,16.493,18.47,22.345,29.396c0.803,1.5,2.352,2.383,3.978,2.383  c0.479,0,0.964-0.078,1.438-0.238l113.244-38.113c1.196-0.403,2.169-1.288,2.682-2.442  C504.484,140.886,504.489,139.572,503.986,138.413z"/>
<path style="fill:#45CE73;" d="M402.441,89.015l-42.632,56.046c-1.39,1.826-1.186,4.407,0.474,5.993  c8.977,8.578,16.493,18.47,22.345,29.396c0.803,1.5,2.352,2.383,3.978,2.383c0.479,0,0.964-0.078,1.438-0.238l67.595-22.749  C443.863,132.089,425.47,107.823,402.441,89.015z"/>
<path style="fill:#C62222;" d="M489.477,193.852c-0.664-2.541-3.341-3.966-5.804-3.136l-112.997,38.029  c-2.137,0.719-3.415,2.906-2.993,5.12c8.835,46.333-10.702,93.712-50.81,120.027c-1.864,1.224-2.556,3.625-1.627,5.651  l49.701,108.473c1.096,2.395,4.003,3.338,6.29,2.065C469.284,415.672,517.653,301.805,489.477,193.852z"/>
<path style="fill:#F23B3B;" d="M439.874,256.418c0-16.882-2.285-33.23-6.54-48.762l-62.66,21.089  c-2.137,0.719-3.415,2.906-2.993,5.12c8.835,46.333-10.702,93.712-50.81,120.027c-1.864,1.224-2.556,3.625-1.627,5.651  l27.194,59.352C400.421,387.89,439.874,326.765,439.874,256.418z"/>
<path style="fill:#F98821;" d="M304.63,150.815c1.939,0.963,4.287,0.413,5.597-1.309c77.969-102.501,73.83-96.009,73.315-98.82  c-0.231-1.249-0.979-2.344-2.059-3.014C219.068-53.146,7.641,64.282,7.641,255.868c0,169.75,169.811,288.799,329.623,229.818  c2.461-0.909,3.635-3.724,2.539-6.112l-49.713-108.5c-3.026-6.606-9.418,2.048-37.567,2.048  c-64.653,0-117.254-52.599-117.254-117.254C135.268,169.183,226.735,112.154,304.63,150.815z"/>
<path style="fill:#F9AE41;" d="M304.63,150.815c1.939,0.963,4.287,0.413,5.597-1.309l39.249-51.6  C227.516,25.619,71.587,113.499,71.587,256.418c0,127.025,125.88,215.951,245.532,173.648l-27.03-58.992  c-3.026-6.606-9.418,2.048-37.567,2.048c-64.653,0-117.254-52.599-117.254-117.254C135.268,169.183,226.735,112.154,304.63,150.815z  "/>
<path d="M511.439,140.356c-15.731-38.366-41.031-72.622-73.165-99.063c-1.574-1.295-3.602-1.896-5.634-1.658  c-2.025,0.235-3.867,1.286-5.102,2.908l-77.201,101.493c-2.368,3.114-1.945,7.528,0.973,10.135  c10.515,9.395,19.011,20.55,25.25,33.155c1.665,3.365,5.559,4.977,9.115,3.781c130.715-43.993,123.719-40.565,125.649-44.789  C512.184,144.432,512.226,142.275,511.439,140.356z M386.932,174.855c-5.591-9.952-12.483-19.029-20.576-27.101l68.325-89.823  c25.398,22.346,45.858,50.017,59.712,80.758L386.932,174.855z"/>
<path d="M484.467,182.231l-121.022,40.73c-3.642,1.226-5.768,5.006-4.925,8.756c1.794,7.972,2.703,16.092,2.703,24.135  c0,38.433-19.605,73.366-52.442,93.445c-3.24,1.98-4.488,6.071-2.906,9.523c57.329,125.12,53.34,120.523,60.036,120.523  c1.211,0,2.418-0.294,3.51-0.872c20.745-10.986,39.867-24.83,56.838-41.148c2.986-2.871,3.079-7.62,0.208-10.605  c-2.871-2.985-7.62-3.078-10.605-0.208c-14.046,13.506-29.658,25.21-46.496,34.865l-10.452-22.811l94.246-58.251  c-5.862,9.492-12.401,18.601-19.612,27.23c-2.656,3.179-2.232,7.909,0.946,10.564c3.179,2.657,7.91,2.233,10.564-0.946  c53.303-63.791,71.542-150.101,49.019-229.859C492.909,183.167,488.521,180.868,484.467,182.231z M484.754,297.86  c-0.705,0.326,7.988-5.008-148.335,91.612l-10.212-22.288l162.05-100.161C487.765,277.401,486.589,287.702,484.754,297.86z   M359.816,317.651c3.977-6.939,7.257-14.242,9.813-21.789l116.708-72.135c1.148,8.454,1.859,16.981,2.094,25.553l-142.762,88.238  C351.01,331.385,355.758,324.73,359.816,317.651z M481.656,199.005c0.716,2.907,1.357,5.832,1.962,8.766L374.72,275.078  c2.034-13.041,2.054-26.363-0.254-39.998L481.656,199.005z M352.617,424.821l-9.9-21.606l137.405-84.927  c-3.374,12.336-7.741,24.381-13.053,36.01C465.878,354.711,473.664,350.004,352.617,424.821z"/>
<path d="M294.42,364.069c-1.583-3.454-5.5-5.178-9.117-4.016c-10.839,3.488-22.122,5.257-33.537,5.257  c-60.355,0-109.457-49.103-109.457-109.458c0-82.512,88.455-135.552,161.179-96.48c3.247,1.745,7.286,0.869,9.521-2.065  L390.548,55.37c1.263-1.661,1.777-3.772,1.419-5.827c-0.357-2.056-1.556-3.869-3.306-5.005  C320.157,0.072,235.155-7.648,161.214,20.864c-3.865,1.49-5.79,5.832-4.299,9.697c1.49,3.864,5.834,5.789,9.697,4.3  c67.13-25.887,143.925-19.985,207.019,17.969l-68.789,90.433c-82.764-39.004-177.535,21.89-177.535,112.589  c0,68.627,55.832,124.459,124.458,124.459c10.74,0,21.38-1.378,31.716-4.102l47.168,102.946  C176.497,533.662,15.001,418.43,15.001,255.851c0-89.232,49.353-169.994,128.801-210.773c3.685-1.892,5.139-6.414,3.248-10.099  c-1.892-3.684-6.411-5.14-10.098-3.248C53.938,74.342,0,160.059,0,255.851c0,176.476,177.932,299.394,343.565,234.498  c1.92-0.753,3.445-2.263,4.218-4.175C349.512,481.894,351.91,489.543,294.42,364.069z"/>
<g>
</g>
<g>
</g>
<g>
</g>
<g>
</g>
<g>
</g>
<g>
</g>
<g>
</g>
<g>
</g>
<g>
</g>
<g>
</g>
<g>
</g>
<g>
</g>
<g>
</g>
<g>
</g>
<g>
</g>
</svg>
